<?xml version="1.0" standalone="no"?>
<!DOCTYPE svg PUBLIC "-//W3C//DTD SVG 20010904//EN"
 "http://www.w3.org/TR/2001/REC-SVG-20010904/DTD/svg10.dtd">
<svg version="1.0" xmlns="http://www.w3.org/2000/svg"
 width="300.000000pt" height="104.000000pt" viewBox="0 0 300.000000 104.000000"
 preserveAspectRatio="xMidYMid meet">

<g transform="translate(0.000000,104.000000) scale(0.100000,-0.100000)"
fill="#ffffff" stroke="none">
<path d="M420 688 c-15 -57 -20 -97 -17 -130 4 -34 3 -48 -6 -48 -7 0 -13 -12
-14 -27 -1 -19 1 -22 8 -12 7 9 8 1 4 -26 -3 -26 -2 -33 3 -20 8 16 10 15 15
-14 10 -50 8 -191 -2 -191 -5 0 -12 10 -14 22 l-4 23 -2 -22 c-1 -27 -18 -30
-24 -6 -4 17 -5 17 -6 1 -1 -13 -8 -17 -31 -14 -16 2 -27 0 -25 -4 8 -14 124
-36 203 -39 7 -1 10 -5 7 -11 -3 -5 -1 -11 4 -11 6 -1 17 -2 24 -3 6 -1 14 1
17 5 3 3 24 16 47 28 24 12 42 27 40 33 -1 7 8 14 21 16 13 2 26 10 29 17 3
10 15 12 36 9 26 -5 29 -3 17 6 -12 9 -10 11 11 6 18 -4 35 1 52 14 34 27 45
25 21 -2 -10 -13 -2 -7 19 11 36 34 52 56 22 31 -20 -17 -19 -7 5 32 14 23 18
44 15 68 -4 27 -3 30 4 15 9 -19 10 -18 10 5 1 14 4 36 7 50 4 19 3 21 -4 11
-8 -11 -9 -4 -7 22 2 20 -1 37 -6 37 -6 0 -8 4 -5 9 3 5 -1 14 -9 21 -8 7 -15
18 -15 26 0 7 -20 25 -45 40 -43 25 -50 26 -153 20 -162 -8 -162 -8 -117 -16
33 -6 27 -7 -37 -9 -73 -1 -106 12 -55 22 l22 4 -22 2 c-20 1 -22 5 -17 41 9
65 -2 46 -26 -42z m353 -54 c45 -23 66 -44 87 -85 22 -41 29 -154 13 -184 -21
-37 -73 -79 -101 -81 -15 0 -53 -2 -84 -2 -57 -2 -58 -2 -58 -32 l0 -30 -100
0 -101 0 3 108 3 107 150 0 150 0 0 30 0 30 -152 3 -153 3 0 74 0 75 155 0
c124 0 163 -3 188 -16z m-73 -153 c45 -12 30 -36 -25 -39 -57 -4 -174 26 -153
40 15 9 143 9 178 -1z m-13 -227 c-3 -3 -12 -4 -19 -1 -8 3 -5 6 6 6 11 1 17
-2 13 -5z"/>
<path d="M855 372 c-11 -20 -35 -47 -54 -59 -19 -13 -29 -23 -23 -23 17 0 72
50 88 82 22 43 12 43 -11 0z"/>
<path d="M488 703 c7 -3 16 -2 19 1 4 3 -2 6 -13 5 -11 0 -14 -3 -6 -6z"/>
<path d="M558 693 c7 -3 16 -2 19 1 4 3 -2 6 -13 5 -11 0 -14 -3 -6 -6z"/>
<path d="M2240 652 c-41 -20 -60 -53 -60 -104 0 -36 2 -38 30 -38 25 0 30 4
30 24 0 14 4 36 10 50 8 21 16 26 44 26 45 0 59 -20 64 -91 l4 -59 -35 0 c-26
0 -39 -6 -51 -25 l-16 -25 51 0 52 0 -6 -66 c-6 -75 -12 -85 -56 -86 -41 -1
-51 10 -58 61 -5 37 -8 41 -34 41 -26 0 -29 -3 -29 -34 0 -52 16 -84 52 -106
62 -38 142 -18 175 43 15 26 18 57 18 172 0 159 -10 191 -69 219 -44 21 -72
20 -116 -2z"/>
<path d="M2825 660 c-65 -26 -92 -122 -80 -279 8 -109 23 -143 70 -165 74 -36
154 -2 175 73 17 62 14 71 -25 71 -33 0 -35 -2 -35 -33 0 -44 -20 -69 -54 -69
-55 0 -61 18 -61 176 0 160 5 176 61 176 38 0 54 -21 54 -69 0 -29 2 -31 36
-31 l37 0 -7 43 c-9 55 -30 85 -71 103 -38 16 -70 17 -100 4z"/>
<path d="M1370 436 l0 -226 30 0 30 0 0 60 0 60 35 0 c53 0 101 24 120 60 37
71 28 182 -19 237 -22 26 -31 28 -110 32 l-86 3 0 -226z m154 152 c22 -31 22
-155 0 -186 -12 -18 -24 -22 -52 -20 l-37 3 -3 113 -3 112 40 0 c30 0 44 -6
55 -22z"/>
<path d="M1650 435 l0 -225 96 0 c93 0 95 1 92 23 -3 19 -10 22 -60 25 l-58 3
0 74 0 75 29 0 c20 0 34 8 45 25 l16 25 -45 0 -45 0 0 75 0 74 58 3 c50 3 57
6 60 26 3 21 1 22 -92 22 l-96 0 0 -225z"/>
<path d="M1918 468 c-3 -189 -3 -193 -25 -203 -15 -6 -23 -18 -23 -34 0 -22 3
-23 42 -18 65 9 68 17 68 219 l0 178 40 0 40 0 0 -200 0 -200 35 0 35 0 0 225
0 225 -105 0 -105 0 -2 -192z"/>
<path d="M2480 435 l0 -225 30 0 30 0 0 110 c0 85 3 110 13 110 8 0 35 -49 62
-110 47 -110 48 -110 82 -110 24 0 34 4 30 13 -3 6 -27 60 -53 119 l-48 108
47 106 46 105 -36 -3 c-36 -3 -38 -5 -77 -95 -22 -51 -46 -93 -53 -93 -10 0
-13 25 -13 95 l0 95 -30 0 -30 0 0 -225z"/>
<path d="M381 364 c0 -11 3 -14 6 -6 3 7 2 16 -1 19 -3 4 -6 -2 -5 -13z"/>
<path d="M403 340 c0 -25 2 -35 4 -22 2 12 2 32 0 45 -2 12 -4 2 -4 -23z"/>
<path d="M372 300 c0 -14 2 -19 5 -12 2 6 2 18 0 25 -3 6 -5 1 -5 -13z"/>
<path d="M738 243 c7 -3 16 -2 19 1 4 3 -2 6 -13 5 -11 0 -14 -3 -6 -6z"/>
</g>
</svg>
